<svg width="43" height="43" viewBox="0 0 43 43" fill="none" xmlns="http://www.w3.org/2000/svg">
<path d="M21.5 0C13.5967 0 7.16663 6.4301 7.16663 14.3334C7.16663 16.7059 7.75981 19.0583 8.88747 21.1448L20.7162 42.5381C20.8736 42.8233 21.1737 43 21.5 43C21.8263 43 22.1263 42.8233 22.2838 42.5381L34.1169 21.1378C35.2402 19.0583 35.8333 16.7058 35.8333 14.3333C35.8333 6.4301 29.4033 0 21.5 0ZM21.5 21.5C17.5484 21.5 14.3333 18.285 14.3333 14.3334C14.3333 10.3817 17.5484 7.16672 21.5 7.16672C25.4516 7.16672 28.6666 10.3817 28.6666 14.3334C28.6666 18.285 25.4516 21.5 21.5 21.5Z" fill="white"/>
</svg>
