<svg width="43" height="43" viewBox="0 0 43 43" fill="none" xmlns="http://www.w3.org/2000/svg">
<g clip-path="url(#clip0)">
<path d="M39.5497 28.2246C36.9171 28.2246 34.3321 27.8128 31.8826 27.0033C30.6823 26.5939 29.2067 26.9695 28.4742 27.7219L23.6393 31.3717C18.0321 28.3787 14.5782 24.9259 11.626 19.3609L15.1685 14.6519C16.0888 13.7328 16.4189 12.3902 16.0234 11.1304C15.2105 8.66797 14.7975 6.08428 14.7975 3.45053C14.7976 1.54789 13.2497 0 11.3472 0H3.45041C1.54789 0 0 1.54789 0 3.45041C0 25.2584 17.7418 43 39.5497 43C41.4522 43 43.0001 41.4521 43.0001 39.5496V31.6749C43 29.7725 41.4521 28.2246 39.5497 28.2246Z" fill="white"/>
</g>
<defs>
<clipPath id="clip0">
<rect width="43" height="43" fill="white"/>
</clipPath>
</defs>
</svg>
