<svg width="43" height="43" viewBox="0 0 43 43" fill="none" xmlns="http://www.w3.org/2000/svg">
<path d="M39.2207 5.12305H3.7793C1.698 5.12305 0 6.8192 0 8.90234V34.0977C0 36.1737 1.69044 37.877 3.7793 37.877H39.2207C41.2968 37.877 43 36.1865 43 34.0977V8.90234C43 6.82625 41.3096 5.12305 39.2207 5.12305ZM38.6988 7.64258L21.5801 24.7614L4.31335 7.64258H38.6988ZM2.51953 33.5759V9.41205L14.6535 21.442L2.51953 33.5759ZM4.30109 35.3574L16.4427 23.2158L20.6971 27.4337C21.1896 27.9219 21.9843 27.9204 22.4748 27.4298L26.623 23.2816L38.6989 35.3574H4.30109ZM40.4805 33.5759L28.4046 21.5L40.4805 9.42405V33.5759Z" fill="white"/>
</svg>
