<svg width="43" height="43" viewBox="0 0 43 43" fill="none" xmlns="http://www.w3.org/2000/svg">
<path d="M21.5 0C9.62659 0 0 9.62659 0 21.5C0 33.3747 9.62659 43 21.5 43C33.3734 43 43 33.3747 43 21.5C42.9999 9.62659 33.3733 0 21.5 0ZM27.5225 37.8789C27.3988 36.1965 27.2605 34.1123 27.2524 33.2685C27.1987 32.6208 27.1287 30.9734 25.5647 29.9212C31.7741 29.4012 34.729 25.9693 34.9414 21.4342C35.1188 18.8515 34.0921 16.5805 32.2687 14.7477C32.3614 12.7872 32.2096 10.4638 32.0834 9.44267C30.6832 9.03956 27.4179 10.7636 26.5054 11.5013C24.5811 10.7541 19.8713 10.4921 17.0091 11.5013C14.98 10.0743 12.6702 9.19278 11.4111 9.43869C10.2487 12.0147 10.9959 14.4495 11.2229 14.7397C9.72592 16.1077 7.63777 17.7915 8.20486 21.3187C9.11455 26.4908 12.7534 29.2805 18.6121 29.963C17.3625 30.2184 17.1514 31.1509 17.0466 31.5554C13.1121 33.1786 11.9875 30.553 11.4902 29.869C9.83884 27.8251 8.3566 28.4178 8.26523 28.4499C8.17652 28.4821 8.10936 28.6111 8.11881 28.673C8.20206 29.1137 9.10112 29.5612 9.1454 29.5974C10.3642 30.5058 10.8157 32.1465 11.0938 32.6141C12.842 35.4884 16.9055 34.2965 16.9445 34.3207C16.9472 34.572 16.9163 36.6871 16.8921 38.3332C9.48282 36.3094 4.03121 29.5503 4.03121 21.5C4.03121 11.8519 11.8519 4.03136 21.4999 4.03136C31.1478 4.03136 38.9686 11.8519 38.9686 21.5C38.9686 29.029 34.1984 35.4238 27.5225 37.8789Z" fill="white"/>
</svg>
